# xmcd
#
# Track frame offsets: 
#        150
#        40083
#        79496
#        98927
#        129083
#        153539
#        173990
#        205276
#        224748
#        271505
#        298934
#
# Disc length: 4453 seconds
#
# Revision: 10
# Processed by: cddbd v1.5.2PL0 Copyright (c) Steve Scherf et al.
# Submitted via: ExactAudioCopy v0.99pb4
#
DISCID=a311630b
DTITLE=The Allman Brothers Band - All Live!
DYEAR=1996
DGENRE=Blues
TTITLE0=Jessica
TTITLE1=Stormy Monday
TTITLE2=Statesboro Blues
TTITLE3=Can't Lose What You Never Had
TTITLE4=Ain't Wastin' Time No More
TTITLE5=Done Somebody Wrong
TTITLE6=Ramblin' Man
TTITLE7=Don't Mess Up A Good Thing
TTITLE8=Turn On Your Love Light
TTITLE9=Will The Circle Be Unbroken
TTITLE10=Queen Of Hearts
EXTD=YEAR: 1998
EXTT0=
EXTT1=
EXTT2=
EXTT3=
EXTT4=
EXTT5=
EXTT6=
EXTT7=
EXTT8=
EXTT9=
EXTT10=
PLAYORDER=
